HIERARCHY
ROOT hip
{
  OFFSET 0 0 0
  CHANNELS 6 Xposition Yposition Zposition Zrotation Yrotation Xrotation
  JOINT abdomen
  {
    OFFSET 0 20.6881 -0.73152
    CHANNELS 3 Zrotation Xrotation Yrotation
    JOINT chest
    {
      OFFSET 0 11.7043 -0.48768
      CHANNELS 3 Zrotation Xrotation Yrotation
      JOINT neck
      {
        OFFSET 0 22.1894 -2.19456
        CHANNELS 3 Zrotation Xrotation Yrotation
        JOINT head
        {
          OFFSET -0.24384 7.07133 1.2192
          CHANNELS 3 Zrotation Xrotation Yrotation
          JOINT leftEye
          {
            OFFSET 4.14528 8.04674 8.04672
            CHANNELS 3 Zrotation Xrotation Yrotation
            End Site
            {
              OFFSET 1 0 0
            }
          }
          JOINT rightEye
          {
            OFFSET -3.6576 8.04674 8.04672
            CHANNELS 3 Zrotation Xrotation Yrotation
            End Site
            {
              OFFSET 1 0 0
            }
          }
        }
      }
      JOINT rCollar
      {
        OFFSET -2.68224 19.2634 -4.8768
        CHANNELS 3 Zrotation Xrotation Yrotation
        JOINT rShldr
        {
          OFFSET -8.77824 -1.95073 1.46304
          CHANNELS 3 Zrotation Xrotation Yrotation
          JOINT rForeArm
          {
            OFFSET -28.1742 -1.7115 0.48768
            CHANNELS 3 Zrotation Xrotation Yrotation
            JOINT rHand
            {
              OFFSET -22.5879 0.773209 7.07136
              CHANNELS 3 Zrotation Xrotation Yrotation
              JOINT rThumb1
              {
                OFFSET -1.2192 -0.487915 3.41376
                CHANNELS 3 Zrotation Xrotation Yrotation
                JOINT rThumb2
                {
                  OFFSET -3.37035 -0.52449 3.41376
                  CHANNELS 3 Zrotation Xrotation Yrotation
                  End Site
                  {
                    OFFSET -1.78271 -1.18214 1.43049
                  }
                }
              }
              JOINT rIndex1
              {
                OFFSET -7.75947 0.938293 5.60832
                CHANNELS 3 Zrotation Xrotation Yrotation
                JOINT rIndex2
                {
                  OFFSET -2.54057 -0.884171 1.56538
                  CHANNELS 3 Zrotation Xrotation Yrotation
                  End Site
                  {
                    OFFSET -1.62519 -0.234802 1.16502
                  }
                }
              }
              JOINT rMid1
              {
                OFFSET -8.24714 1.18213 3.41376
                CHANNELS 3 Zrotation Xrotation Yrotation
                JOINT rMid2
                {
                  OFFSET -3.10165 -0.590103 1.0647
                  CHANNELS 3 Zrotation Xrotation Yrotation
                  End Site
                  {
                    OFFSET -2.48547 -0.328903 0.83742
                  }
                }
              }
              JOINT rRing1
              {
                OFFSET -8.82822 0.546677 1.51678
                CHANNELS 3 Zrotation Xrotation Yrotation
                JOINT rRing2
                {
                  OFFSET -2.60934 -0.819778 -0.0198488
                  CHANNELS 3 Zrotation Xrotation Yrotation
                  End Site
                  {
                    OFFSET -2.33842 -0.294052 0.168128
                  }
                }
              }
              JOINT rPinky1
              {
                OFFSET -8.27202 -0.0477905 -0.4584
                CHANNELS 3 Zrotation Xrotation Yrotation
                JOINT rPinky2
                {
                  OFFSET -1.82734 -0.647385 -0.700984
                  CHANNELS 3 Zrotation Xrotation Yrotation
                  End Site
                  {
                    OFFSET -1.69225 -0.51767 -0.607171
                  }
                }
              }
            }
          }
        }
      }
      JOINT lCollar
      {
        OFFSET 2.68224 19.2634 -4.8768
        CHANNELS 3 Zrotation Xrotation Yrotation
        JOINT lShldr
        {
          OFFSET 8.77824 -1.95073 1.46304
          CHANNELS 3 Zrotation Xrotation Yrotation
          JOINT lForeArm
          {
            OFFSET 28.1742 -1.7115 0.48768
            CHANNELS 3 Zrotation Xrotation Yrotation
            JOINT lHand
            {
              OFFSET 22.5879 0.773209 7.07136
              CHANNELS 3 Zrotation Xrotation Yrotation
              JOINT lThumb1
              {
                OFFSET 1.2192 -0.487915 3.41376
                CHANNELS 3 Zrotation Xrotation Yrotation
                JOINT lThumb2
                {
                  OFFSET 3.37035 -0.52449 3.41376
                  CHANNELS 3 Zrotation Xrotation Yrotation
                  End Site
                  {
                    OFFSET 1.78271 -1.18214 1.43049
                  }
                }
              }
              JOINT lIndex1
              {
                OFFSET 7.75947 0.938293 5.60832
                CHANNELS 3 Zrotation Xrotation Yrotation
                JOINT lIndex2
                {
                  OFFSET 2.54057 -0.884171 1.56538
                  CHANNELS 3 Zrotation Xrotation Yrotation
                  End Site
                  {
                    OFFSET 1.62519 -0.234802 1.16502
                  }
                }
              }
              JOINT lMid1
              {
                OFFSET 8.24714 1.18213 3.41376
                CHANNELS 3 Zrotation Xrotation Yrotation
                JOINT lMid2
                {
                  OFFSET 3.10165 -0.590103 1.0647
                  CHANNELS 3 Zrotation Xrotation Yrotation
                  End Site
                  {
                    OFFSET 2.48547 -0.328903 0.83742
                  }
                }
              }
              JOINT lRing1
              {
                OFFSET 8.82822 0.546677 1.51678
                CHANNELS 3 Zrotation Xrotation Yrotation
                JOINT lRing2
                {
                  OFFSET 2.60934 -0.819778 -0.0198488
                  CHANNELS 3 Zrotation Xrotation Yrotation
                  End Site
                  {
                    OFFSET 2.33842 -0.294052 0.168128
                  }
                }
              }
              JOINT lPinky1
              {
                OFFSET 8.27202 -0.0477905 -0.4584
                CHANNELS 3 Zrotation Xrotation Yrotation
                JOINT lPinky2
                {
                  OFFSET 1.82734 -0.647385 -0.700984
                  CHANNELS 3 Zrotation Xrotation Yrotation
                  End Site
                  {
                    OFFSET 1.69225 -0.51767 -0.607171
                  }
                }
              }
            }
          }
        }
      }
    }
  }
  JOINT rButtock
  {
    OFFSET -8.77824 4.35084 1.2192
    CHANNELS 3 Zrotation Xrotation Yrotation
    JOINT rThigh
    {
      OFFSET 0 -1.70687 -2.19456
      CHANNELS 3 Zrotation Xrotation Yrotation
      JOINT rShin
      {
        OFFSET 0 -36.8199 0.73152
        CHANNELS 3 Zrotation Xrotation Yrotation
        JOINT rFoot
        {
          OFFSET 0.73152 -45.1104 -5.12064
          CHANNELS 3 Zrotation Xrotation Yrotation
          End Site
          {
            OFFSET -1.1221 -3.69964 12.103
          }
        }
      }
    }
  }
  JOINT lButtock
  {
    OFFSET 8.77824 4.35084 1.2192
    CHANNELS 3 Zrotation Xrotation Yrotation
    JOINT lThigh
    {
      OFFSET 0 -1.70687 -2.19456
      CHANNELS 3 Zrotation Xrotation Yrotation
      JOINT lShin
      {
        OFFSET 0 -36.8199 0.73152
        CHANNELS 3 Zrotation Xrotation Yrotation
        JOINT lFoot
        {
          OFFSET -0.73152 -45.1104 -5.12064
          CHANNELS 3 Zrotation Xrotation Yrotation
          End Site
          {
            OFFSET 1.1221 -3.69964 12.103
          }
        }
      }
    }
  }
}
MOTION
Frames:	6
Frame Time:	0.00833333
57.0217 85.2123 -94.8547 -1.4595 -0.8871 10.8722 3.35434 -11.8883 1.68588 -1.56523 -2.94363 0.514673 0.23652 15.9209 -1.83508 2.68878 -18.4472 -3.13821 -0.0 0.0 0.0 -0.0 0.0 0.0 8.6098e-14 1.73949e-13 -5.85828e-14 51.5375 -62.4077 104.015 -7.79341 -2.90429 13.7235 -0.553585 20.6646 3.03831 3.36694e-10 3.17999e-10 -7.1106e-12 5.78141e-10 5.45332e-10 -2.16116e-11 3.36701e-10 3.18012e-10 -7.13271e-12 7.73091 5.47488 0.417314 3.36694e-10 3.18e-10 -7.11478e-12 2.90554 0.965183 0.102902 3.36704e-10 3.18001e-10 -7.12364e-12 10.2786 0.731801 0.0259123 3.36694e-10 3.18006e-10 -7.12924e-12 2.22167 -0.733487 -0.20892 8.61946e-14 1.7395e-13 -5.8749e-14 -8.9831 -59.6038 -76.6425 9.22087 -3.68116 -16.3482 0.081414 8.10439 -1.14676 -1.32685e-10 -1.15983e-09 1.51252e-09 -2.16691e-10 -2.00605e-09 2.61858e-09 -1.32689e-10 -1.15982e-09 1.51253e-09 -7.73091 5.47488 -0.417314 -1.32682e-10 -1.15984e-09 1.51252e-09 -2.90554 0.965183 -0.102902 -1.32697e-10 -1.15982e-09 1.51253e-09 -10.2786 0.731801 -0.0259123 -1.32683e-10 -1.15982e-09 1.51253e-09 -2.22167 -0.733487 0.20892 -2.03217e-16 0.0 -3.88251e-19 0.180374 -9.89263 6.41201 -0.0100212 12.0381 0.111589 -1.42981 -18.3043 -7.50142 2.03217e-16 0.0 3.88251e-19 7.12361 -3.58137 -4.23212 0.0166408 3.80025 0.0461993 -1.61612 -8.75563 -4.79256
57.0264 85.2872 -94.9744 -1.516 -0.8544 11.3773 3.44569 -11.227 1.64336 -1.50012 -2.87199 0.502981 0.0999107 15.5126 -1.80207 2.72992 -18.2009 -3.07574 -0.0 0.0 0.0 -0.0 0.0 0.0 5.82105e-14 1.67376e-13 -6.9674e-14 52.4483 -62.3959 105.031 -7.78101 -2.89803 13.7009 -0.568801 20.9221 3.07995 -9.32475e-11 1.43411e-10 -3.84596e-10 -1.71028e-10 2.46652e-10 -6.66697e-10 -9.324e-11 1.43421e-10 -3.84621e-10 7.73091 5.47488 0.417314 -9.32474e-11 1.43411e-10 -3.84605e-10 2.90554 0.965183 0.102902 -9.32381e-11 1.43412e-10 -3.84612e-10 10.2786 0.731801 0.0259123 -9.32481e-11 1.43416e-10 -3.84618e-10 2.22167 -0.733487 -0.20892 5.83308e-14 1.67378e-13 -6.98231e-14 -8.86833 -59.9141 -76.4098 9.18296 -3.65939 -16.2779 0.08269 8.17579 -1.15697 2.03994e-10 -1.50991e-09 1.51437e-09 3.65989e-10 -2.61057e-09 2.61885e-09 2.03992e-10 -1.50991e-09 1.51438e-09 -7.73091 5.47488 -0.417314 2.03996e-10 -1.50993e-09 1.51438e-09 -2.90554 0.965183 -0.102902 2.03982e-10 -1.50991e-09 1.51438e-09 -10.2786 0.731801 -0.0259123 2.03995e-10 -1.50991e-09 1.51438e-09 -2.22167 -0.733487 0.20892 -2.03217e-16 0.0 -3.88251e-19 0.124498 -10.4173 6.26475 -0.0106029 12.1222 0.119293 -1.3055 -17.8348 -7.31197 2.03217e-16 0.0 3.88251e-19 7.21487 -4.41657 -4.14803 0.0188499 4.4961 0.025491 -1.55117 -8.43642 -4.59794
57.0306 85.3773 -95.1138 -1.5835 -0.855 11.903 3.55572 -10.5632 1.63151 -1.46381 -2.79459 0.498251 -0.0375203 15.1094 -1.77275 2.82269 -17.8821 -3.01069 -0.0 0.0 0.0 -0.0 0.0 0.0 2.23453e-14 9.03161e-14 -7.10935e-14 52.9829 -62.4133 105.687 -7.78243 -2.89879 13.7036 -0.567359 20.8912 3.07509 -8.19405e-10 -2.66372e-10 -8.29452e-10 -1.43206e-09 -4.54603e-10 -1.42187e-09 -8.19398e-10 -2.66364e-10 -8.29475e-10 7.73091 5.47488 0.417314 -8.19405e-10 -2.66372e-10 -8.29462e-10 2.90554 0.965183 0.102902 -8.19396e-10 -2.6637e-10 -8.29466e-10 10.2786 0.731801 0.0259123 -8.19407e-10 -2.66367e-10 -8.29471e-10 2.22167 -0.733487 -0.20892 2.24406e-14 9.03179e-14 -7.12131e-14 -9.18403 -60.2179 -76.515 9.15147 -3.64139 -16.2196 0.0877835 8.43811 -1.19458 7.75216e-10 -1.66922e-09 1.34668e-09 1.35234e-09 -2.88321e-09 2.32298e-09 7.75214e-10 -1.66922e-09 1.34669e-09 -7.73091 5.47488 -0.417314 7.75218e-10 -1.66923e-09 1.3467e-09 -2.90554 0.965183 -0.102902 7.75205e-10 -1.66922e-09 1.3467e-09 -10.2786 0.731801 -0.0259123 7.75217e-10 -1.66921e-09 1.34669e-09 -2.22167 -0.733487 0.20892 -2.03217e-16 0.0 -3.88251e-19 0.0456204 -11.0044 6.05436 -0.0107393 12.2407 0.128138 -1.1603 -17.3394 -7.05035 2.03217e-16 0.0 3.88251e-19 7.32536 -5.31754 -3.98417 0.0229839 5.24483 0.00392675 -1.49729 -8.11891 -4.43056
57.0378 85.4747 -95.2763 -1.6522 -0.8756 12.4655 3.68545 -9.87962 1.63459 -1.44374 -2.70242 0.496567 -0.195243 14.6753 -1.74022 2.97129 -17.4889 -2.93041 -0.0 0.0 0.0 -0.0 0.0 0.0 -2.34355e-14 -3.54837e-14 -6.62512e-14 53.3058 -62.4529 106.153 -7.79245 -2.90394 13.7219 -0.554811 20.6679 3.03921 -1.79178e-09 -8.64143e-10 -1.36621e-09 -3.11927e-09 -1.47791e-09 -2.33079e-09 -1.79178e-09 -8.64139e-10 -1.36623e-09 7.73091 5.47488 0.417314 -1.79178e-09 -8.64142e-10 -1.36622e-09 2.90554 0.965183 0.102902 -1.79177e-09 -8.64141e-10 -1.36622e-09 10.2786 0.731801 0.0259123 -1.79179e-09 -8.64138e-10 -1.36622e-09 2.22167 -0.733487 -0.20892 -2.33954e-14 -3.5482e-14 -6.6332e-14 -9.81129 -60.5339 -76.8572 9.12241 -3.62486 -16.1657 0.0960928 8.83105 -1.25106 1.53592e-09 -1.7283e-09 1.04449e-09 2.66492e-09 -2.98121e-09 1.79224e-09 1.53591e-09 -1.7283e-09 1.0445e-09 -7.73091 5.47488 -0.417314 1.53592e-09 -1.72831e-09 1.0445e-09 -2.90554 0.965183 -0.102902 1.53591e-09 -1.7283e-09 1.0445e-09 -10.2786 0.731801 -0.0259123 1.53592e-09 -1.72829e-09 1.0445e-09 -2.22167 -0.733487 0.20892 -2.03217e-16 0.0 -3.88251e-19 -0.0497402 -11.6518 5.79863 -0.0105834 12.3927 0.138119 -1.00138 -16.8272 -6.73227 2.03217e-16 0.0 3.88251e-19 7.45924 -6.28754 -3.75705 0.0288274 6.05457 -0.0184383 -1.45384 -7.80604 -4.29099
57.0535 85.5725 -95.4679 -1.7109 -0.8851 13.0799 3.81146 -9.17244 1.64045 -1.44073 -2.6291 0.494904 -0.330258 14.3036 -1.71216 3.11743 -17.1382 -2.85776 -0.0 0.0 0.0 -0.0 0.0 0.0 -6.63216e-14 -1.65408e-13 -5.82128e-14 53.3942 -62.5083 106.379 -7.81077 -2.91338 13.7554 -0.534917 20.3146 2.98251 -2.72052e-09 -1.47521e-09 -1.86476e-09 -4.73024e-09 -2.52429e-09 -3.17454e-09 -2.72051e-09 -1.47521e-09 -1.86477e-09 7.73091 5.47488 0.417314 -2.72052e-09 -1.47521e-09 -1.86477e-09 2.90554 0.965183 0.102902 -2.72051e-09 -1.47521e-09 -1.86476e-09 10.2786 0.731801 0.0259123 -2.72052e-09 -1.4752e-09 -1.86476e-09 2.22167 -0.733487 -0.20892 -6.63408e-14 -1.65407e-13 -5.82641e-14 -10.5299 -60.8141 -77.2738 9.09677 -3.61032 -16.1183 0.105695 9.24687 -1.31102 2.26573e-09 -1.73029e-09 7.40683e-10 3.92398e-09 -2.98025e-09 1.25892e-09 2.26573e-09 -1.73029e-09 7.40692e-10 -7.73091 5.47488 -0.417314 2.26573e-09 -1.73029e-09 7.40694e-10 -2.90554 0.965183 -0.102902 2.26572e-09 -1.73029e-09 7.40689e-10 -10.2786 0.731801 -0.0259123 2.26573e-09 -1.73028e-09 7.40684e-10 -2.22167 -0.733487 0.20892 -2.03217e-16 0.0 -3.88251e-19 -0.167334 -12.3544 5.50496 -0.0103911 12.5865 0.149398 -0.840851 -16.3114 -6.39481 2.03217e-16 0.0 3.88251e-19 7.59746 -7.33399 -3.49966 0.0360987 6.94524 -0.0427839 -1.42013 -7.49174 -4.184
57.0797 85.6696 -95.6892 -1.7505 -0.8602 13.7404 3.9109 -8.43785 1.63702 -1.45556 -2.60822 0.490241 -0.399936 14.0878 -1.69613 3.20398 -16.9474 -2.81511 -0.0 0.0 0.0 -0.0 0.0 0.0 -9.35032e-14 -2.54843e-13 -5.0044e-14 53.2235 -62.572 106.315 -7.83708 -2.927 13.8033 -0.511329 19.8934 2.91514 -3.31574e-09 -1.92487e-09 -2.19497e-09 -5.76256e-09 -3.29474e-09 -3.73422e-09 -3.31573e-09 -1.92487e-09 -2.19498e-09 7.73091 5.47488 0.417314 -3.31574e-09 -1.92487e-09 -2.19498e-09 2.90554 0.965183 0.102902 -3.31573e-09 -1.92487e-09 -2.19497e-09 10.2786 0.731801 0.0259123 -3.31574e-09 -1.92487e-09 -2.19497e-09 2.22167 -0.733487 -0.20892 -9.35593e-14 -2.54841e-13 -5.00937e-14 -11.1097 -61.0125 -77.5915 9.07557 -3.59828 -16.0791 0.11385 9.57787 -1.35889 2.74428e-09 -1.71832e-09 5.68155e-10 4.74975e-09 -2.95605e-09 9.55302e-10 2.74428e-09 -1.71831e-09 5.68165e-10 -7.73091 5.47488 -0.417314 2.74429e-09 -1.71831e-09 5.68165e-10 -2.90554 0.965183 -0.102902 2.74428e-09 -1.71831e-09 5.68158e-10 -10.2786 0.731801 -0.0259123 2.74429e-09 -1.71831e-09 5.68152e-10 -2.22167 -0.733487 0.20892 -2.03217e-16 0.0 -3.88251e-19 -0.312686 -13.1071 5.1807 -0.0104325 12.8306 0.162144 -0.6891 -15.8054 -6.07448 2.03217e-16 0.0 3.88251e-19 7.71901 -8.46421 -3.2451 0.0446373 7.93674 -0.0703123 -1.39542 -7.16992 -4.11432
